<?xml version="1.0" standalone="no"?>
<!DOCTYPE svg PUBLIC "-//W3C//DTD SVG 20010904//EN"
 "http://www.w3.org/TR/2001/REC-SVG-20010904/DTD/svg10.dtd">
<svg version="1.0" xmlns="http://www.w3.org/2000/svg"
 width="406.000000pt" height="369.000000pt" viewBox="0 0 406.000000 369.000000"
 preserveAspectRatio="xMidYMid meet">

<g transform="translate(0.000000,369.000000) scale(0.100000,-0.100000)"
fill="#000000" stroke="none">
<path d="M1337 2377 c1 -369 3 -981 3 -1358 l0 -687 34 -4 c34 -4 34 -3 82 92
27 52 58 109 69 125 12 17 29 50 39 75 9 25 35 74 56 110 21 36 76 139 122
230 47 91 91 177 100 190 8 14 36 64 62 113 l46 88 0 488 0 488 -26 24 c-14
13 -60 69 -102 124 -42 55 -110 141 -152 191 -41 50 -118 144 -170 210 -93
116 -146 174 -159 174 -3 0 -5 -303 -4 -673z"/>
<path d="M1515 2973 c30 -43 76 -107 102 -143 83 -112 124 -171 213 -305 48
-71 94 -136 103 -144 16 -12 17 11 17 328 l0 341 -245 0 -244 0 54 -77z"/>
<path d="M2869 2848 c-96 -106 -223 -246 -284 -312 -60 -66 -128 -140 -150
-164 -22 -25 -74 -81 -116 -126 -42 -44 -117 -128 -166 -186 -50 -58 -107
-121 -127 -139 -20 -19 -36 -39 -36 -43 0 -4 142 -8 315 -8 l314 0 127 103
c69 56 181 147 249 202 67 55 180 147 251 205 71 58 151 126 179 151 27 25 73
62 100 83 28 21 78 63 113 93 34 31 96 83 137 117 41 33 115 96 165 139 l91
77 -494 0 -494 0 -174 -192z"/>
<path d="M2008 1753 c22 -27 53 -60 69 -75 l28 -27 44 69 c40 64 62 82 75 62
2 -4 -4 -28 -13 -52 -10 -25 -27 -69 -39 -98 l-20 -52 31 -37 c18 -20 68 -77
112 -126 44 -49 87 -100 96 -113 9 -14 52 -64 96 -112 44 -48 101 -114 128
-147 26 -33 73 -87 104 -121 74 -80 203 -230 268 -310 29 -36 89 -107 135
-158 46 -51 102 -116 126 -145 l43 -51 366 0 365 0 -94 101 c-51 56 -133 145
-183 198 -49 54 -106 115 -125 138 -19 22 -100 109 -180 195 -80 85 -215 230
-300 323 -292 318 -414 450 -479 518 l-65 67 -314 0 -314 0 40 -47z"/>
<path d="M1890 1077 c-146 -276 -200 -378 -225 -422 -49 -88 -165 -313 -165
-319 0 -4 99 -5 220 -4 l221 3 -1 409 c0 226 -2 411 -3 413 -2 1 -23 -35 -47
-80z"/>
</g>
</svg>
